<?xml version="1.0" standalone="no"?>
<!DOCTYPE svg PUBLIC "-//W3C//DTD SVG 20010904//EN"
 "http://www.w3.org/TR/2001/REC-SVG-20010904/DTD/svg10.dtd">
<svg version="1.0" xmlns="http://www.w3.org/2000/svg"
 width="1790.000000pt" height="426.000000pt" viewBox="0 0 1790.000000 426.000000"
 preserveAspectRatio="xMidYMid meet">

<g transform="translate(0.000000,426.000000) scale(0.100000,-0.100000)"
fill="#000000" stroke="none">
<path d="M1956 4109 c-254 -27 -548 -123 -775 -253 -282 -161 -543 -415 -710
-691 -237 -391 -327 -863 -251 -1310 127 -743 683 -1332 1429 -1514 159 -39
285 -53 466 -53 312 0 587 64 870 202 404 196 715 509 911 915 214 447 249
938 99 1404 -25 75 -41 139 -37 142 4 4 86 40 182 80 180 75 210 93 188 115
-12 11 -1019 318 -1023 311 -24 -33 -495 -927 -495 -939 0 -31 23 -30 96 1 38
16 124 52 191 79 l122 50 26 -79 c38 -112 54 -217 55 -345 2 -805 -818 -1373
-1582 -1094 -445 162 -739 582 -738 1052 1 144 16 238 59 368 132 393 469 686
893 776 100 21 332 24 428 5 181 -36 356 -113 497 -220 l92 -70 140 262 c77
145 146 270 153 279 12 16 25 13 156 -27 217 -66 206 -66 137 5 -388 398 -998
610 -1579 549z"/>
<path d="M13630 3269 c-52 -5 -129 -15 -170 -21 l-75 -13 -3 -967 -2 -968 220
0 220 0 0 330 0 330 156 0 c424 0 706 114 824 332 94 175 96 487 3 661 -86
161 -282 271 -555 311 -116 18 -450 20 -618 5z m571 -382 c152 -37 231 -142
215 -289 -19 -188 -126 -252 -443 -265 l-153 -6 0 286 0 286 48 4 c78 8 273
-2 333 -16z"/>
<path d="M5075 3113 c-200 -433 -426 -1002 -653 -1643 l-58 -165 225 -3 c123
-1 228 1 231 5 4 5 38 99 76 211 l69 202 382 0 383 0 13 -32 c7 -18 40 -113
73 -210 l59 -177 239 -1 c186 0 237 3 233 13 -2 6 -32 91 -67 187 -232 652
-429 1144 -642 1608 l-71 152 -212 0 -212 0 -68 -147z m335 -458 c61 -151 210
-554 210 -567 0 -4 -124 -8 -276 -8 -168 0 -274 4 -272 9 69 197 275 716 280
708 3 -7 30 -70 58 -142z"/>
<path d="M8706 2820 c-93 -11 -235 -37 -289 -52 -26 -8 -36 -16 -33 -27 2 -9
15 -85 27 -169 22 -145 24 -153 44 -147 153 46 411 64 510 36 93 -27 155 -116
155 -221 0 -36 -3 -41 -17 -35 -38 14 -233 23 -330 15 -311 -27 -487 -155
-524 -380 -21 -129 12 -287 79 -375 45 -60 136 -124 212 -148 122 -39 224 -50
435 -44 200 6 232 9 443 48 l114 22 -4 511 c-5 480 -6 516 -26 588 -11 42 -33
100 -48 129 -56 112 -180 199 -334 234 -89 20 -302 28 -414 15z m368 -886 l46
-7 0 -158 c0 -96 -4 -160 -10 -164 -6 -4 -74 -7 -153 -8 -135 -1 -145 0 -200
25 -48 23 -61 34 -77 70 -48 107 6 209 126 237 47 11 202 14 268 5z"/>
<path d="M15300 2816 c-112 -15 -202 -31 -261 -48 l-35 -10 26 -166 c14 -92
30 -167 35 -167 6 0 42 8 80 17 166 40 365 45 459 12 83 -30 135 -108 136
-203 0 -47 -2 -52 -17 -46 -38 14 -233 23 -330 15 -251 -22 -414 -111 -489
-267 -23 -49 -28 -74 -32 -167 -7 -173 26 -276 117 -365 57 -56 130 -93 236
-123 72 -20 104 -22 320 -22 218 0 255 2 400 28 88 15 170 30 183 33 l23 6 -3
516 c-4 495 -5 519 -26 596 -53 191 -176 303 -382 350 -100 22 -309 28 -440
11z m394 -882 l46 -7 0 -162 0 -162 -102 -6 c-228 -14 -341 32 -348 143 -7 98
26 148 120 180 57 20 191 26 284 14z"/>
<path d="M10025 2804 c-88 -12 -269 -46 -317 -60 -17 -5 -18 -48 -18 -725 l0
-719 210 0 210 0 0 574 0 573 38 7 c20 3 71 6 112 6 120 0 187 -45 222 -149 9
-26 13 -175 16 -523 l3 -488 214 0 215 0 0 428 c-1 390 -7 565 -25 648 -7 30
-5 32 47 54 124 54 259 33 312 -47 50 -76 56 -137 56 -630 l0 -453 211 0 210
0 -3 538 c-4 474 -6 544 -21 597 -77 264 -249 384 -553 385 -128 0 -229 -24
-351 -86 l-92 -46 -33 25 c-52 39 -114 67 -195 88 -92 23 -311 25 -468 3z"/>
<path d="M6060 2782 c0 -4 38 -136 85 -293 101 -334 283 -881 353 -1059 l49
-125 169 0 168 0 59 185 c62 200 132 436 167 568 12 46 24 81 26 80 1 -2 28
-89 58 -193 30 -105 88 -291 128 -415 l74 -225 166 -3 166 -2 32 77 c56 134
165 439 239 668 78 245 205 662 216 713 l7 32 -220 0 -219 0 -17 -82 c-48
-228 -154 -662 -201 -823 l-18 -60 -19 55 c-15 43 -202 787 -224 888 -4 22 -7
22 -157 22 l-152 0 -79 -313 c-87 -347 -164 -628 -175 -639 -11 -12 -124 436
-218 862 l-19 85 -222 3 c-122 1 -222 -1 -222 -6z"/>
<path d="M11893 2283 c3 -481 5 -512 25 -590 54 -207 162 -328 350 -391 75
-26 84 -27 312 -27 212 1 249 3 380 28 80 14 162 31 183 37 l37 11 0 719 0
720 -215 0 -215 0 0 -575 0 -574 -34 -6 c-19 -4 -83 -5 -144 -3 -104 3 -113 5
-154 33 -54 38 -85 110 -98 228 -6 45 -10 265 -10 490 l0 407 -211 0 -210 0 4
-507z"/>
<path d="M16175 2778 c2 -7 27 -87 55 -178 122 -390 249 -712 423 -1073 l81
-169 -28 -53 c-42 -80 -90 -131 -144 -152 -60 -23 -185 -23 -266 1 -32 9 -60
15 -62 13 -8 -8 -75 -329 -70 -334 20 -21 156 -46 273 -50 357 -15 491 93 705
567 158 349 327 796 449 1190 33 107 64 207 69 223 l9 27 -219 0 -219 0 -11
-42 c-73 -285 -259 -901 -279 -921 -14 -14 -190 497 -281 818 -17 61 -33 118
-36 128 -5 15 -25 17 -229 17 -175 0 -223 -3 -220 -12z"/>
</g>
</svg>
